<svg width="64" height="64" viewBox="0 0 64 64" fill="none" xmlns="http://www.w3.org/2000/svg">
<path d="M2.41093 35.1503C0.988072 33.2911 0.988072 30.7089 2.41093 28.8497C3.4131 27.5401 3.73243 25.8319 3.27098 24.2488C2.61584 22.0011 3.54864 19.5933 5.54704 18.3736C6.9546 17.5145 7.86944 16.037 8.01105 14.3941C8.2121 12.0615 9.95172 10.1533 12.2558 9.73785C13.8786 9.44526 15.2654 8.39799 15.991 6.91718C17.021 4.81475 19.3325 3.66377 21.6311 4.10873C23.25 4.42213 24.9215 3.94656 26.133 2.82783C27.853 1.23949 30.4242 1.00124 32.4068 2.24648C33.8032 3.12355 35.5336 3.28389 37.0674 2.67834C39.245 1.81861 41.7286 2.52526 43.1275 4.4026C44.1128 5.72489 45.6684 6.4995 47.3174 6.48891C49.6585 6.47388 51.7192 8.03001 52.3454 10.2859C52.7865 11.8748 53.9573 13.1591 55.4987 13.7449C57.6872 14.5766 59.0466 16.772 58.8156 19.1018C58.6529 20.7428 59.2807 22.3633 60.5064 23.4663C62.2467 25.0325 62.7211 27.5707 61.6641 29.6597C60.9196 31.1311 60.9196 32.8689 61.6641 34.3403C62.7211 36.4293 62.2467 38.9675 60.5064 40.5337C59.2807 41.6367 58.6529 43.2572 58.8156 44.8982C59.0466 47.228 57.6872 49.4234 55.4987 50.2551C53.9573 50.8409 52.7865 52.1252 52.3454 53.7141C51.7192 55.97 49.6585 57.5261 47.3174 57.5111C45.6684 57.5005 44.1128 58.2751 43.1275 59.5974C41.7286 61.4747 39.245 62.1814 37.0674 61.3217C35.5336 60.7161 33.8032 60.8765 32.4068 61.7535C30.4242 62.9988 27.853 62.7605 26.133 61.1722C24.9215 60.0534 23.25 59.5779 21.6311 59.8913C19.3325 60.3362 17.021 59.1852 15.991 57.0828C15.2654 55.602 13.8786 54.5547 12.2558 54.2621C9.95172 53.8467 8.2121 51.9385 8.01105 49.6059C7.86944 47.963 6.9546 46.4855 5.54704 45.6264C3.54864 44.4067 2.61584 41.9989 3.27098 39.7512C3.73243 38.1681 3.4131 36.4599 2.41093 35.1503Z" fill="#F0F0F0"/>
<path d="M28 22L38 32L28 42" stroke="#293739" stroke-linecap="round" stroke-linejoin="round"/>
</svg>
