<svg width="32" height="32" viewBox="0 0 32 32" fill="none" xmlns="http://www.w3.org/2000/svg">
<g id="FacebookLogo" clip-path="url(#clip0_92_260)">
<path id="Vector" d="M28.9999 16C28.9959 19.1773 27.8301 22.2434 25.7223 24.6208C23.6145 26.9983 20.7101 28.5229 17.5562 28.9075C17.486 28.9155 17.4149 28.9085 17.3475 28.8869C17.2802 28.8654 17.2182 28.8298 17.1657 28.7826C17.1131 28.7353 17.0712 28.6775 17.0426 28.6128C17.014 28.5482 16.9995 28.4782 16.9999 28.4075V19H19.9999C20.137 19.0003 20.2727 18.9724 20.3986 18.9181C20.5244 18.8637 20.6378 18.7841 20.7315 18.6841C20.8253 18.5841 20.8975 18.4659 20.9437 18.3368C20.9899 18.2078 21.009 18.0706 20.9999 17.9338C20.9779 17.6766 20.8592 17.4374 20.6679 17.2642C20.4766 17.0909 20.2268 16.9966 19.9687 17H16.9999V14C16.9999 13.4696 17.2107 12.9609 17.5857 12.5858C17.9608 12.2107 18.4695 12 18.9999 12H20.9999C21.137 12.0003 21.2727 11.9724 21.3986 11.9181C21.5244 11.8638 21.6378 11.7841 21.7315 11.6841C21.8253 11.5841 21.8975 11.4659 21.9437 11.3368C21.9899 11.2078 22.009 11.0706 21.9999 10.9338C21.9778 10.6762 21.8588 10.4366 21.667 10.2633C21.4751 10.09 21.2247 9.99592 20.9662 10H18.9999C17.9391 10 16.9217 10.4215 16.1715 11.1716C15.4214 11.9217 14.9999 12.9392 14.9999 14V17H11.9999C11.8629 16.9997 11.7272 17.0276 11.6013 17.082C11.4755 17.1363 11.3621 17.216 11.2683 17.3159C11.1746 17.4159 11.1023 17.5341 11.0562 17.6632C11.01 17.7923 10.9909 17.9295 10.9999 18.0663C11.0221 18.3239 11.141 18.5635 11.3329 18.7368C11.5248 18.9101 11.7752 19.0041 12.0337 19H14.9999V28.41C15.0004 28.4806 14.9859 28.5504 14.9574 28.615C14.9289 28.6795 14.887 28.7373 14.8346 28.7845C14.7822 28.8318 14.7204 28.8674 14.6532 28.889C14.5861 28.9106 14.5151 28.9178 14.4449 28.91C11.2066 28.5157 8.2344 26.9199 6.11654 24.4386C3.99867 21.9573 2.88955 18.7713 3.00869 15.5113C3.25869 8.76128 8.72619 3.27378 15.4812 3.01128C17.2301 2.94354 18.9746 3.22922 20.6105 3.85124C22.2464 4.47325 23.7401 5.41883 25.0021 6.6314C26.2642 7.84397 27.2687 9.29863 27.9556 10.9084C28.6425 12.5181 28.9977 14.2499 28.9999 16Z" fill="#F0F0F0"/>
</g>
<defs>
<clipPath id="clip0_92_260">
<rect width="32" height="32" fill="white"/>
</clipPath>
</defs>
</svg>
